<svg id="Layer_1" data-name="Layer 1" xmlns="http://www.w3.org/2000/svg" viewBox="0 0 590.71 154.76"><defs><style>.cls-1,.cls-2{fill:#005ec4;}.cls-2{font-size:116px;font-family:FuturaBT-Bold, Futura Md BT;font-weight:700;letter-spacing:-0.03em;}.cls-3{font-size:111.71px;fill:#70d8ff;font-family:Futura-CondensedMedium, Futura;letter-spacing:-0.03em;}</style></defs><title>logofull</title><path class="cls-1" d="M142.85,165.05h0a30.16,30.16,0,0,0-30.17,30.16V316l30.17-30.17Z" transform="translate(-22 -164)"/><polygon class="cls-1" points="120.85 31.21 151.01 31.21 181.18 1.05 120.85 1.05 120.85 31.21"/><rect class="cls-1" x="33" y="31.27" width="57.75" height="1.85"/><rect class="cls-1" x="70.92" y="75.6" width="19.82" height="1.85"/><rect class="cls-1" x="63.78" y="46.42" width="26.96" height="1.85"/><rect class="cls-1" x="65.75" y="59.59" width="3.57" height="1.85"/><polygon class="cls-1" points="67.6 61.44 75.48 46.42 77.08 47.28 69.32 61.44 67.6 61.44"/><rect class="cls-1" x="69.07" y="91.61" width="21.55" height="1.85"/><rect class="cls-1" x="80.52" y="121.77" width="10.22" height="1.85"/><polygon class="cls-1" points="60.45 16.13 75.31 16.13 75.85 17.98 60.45 17.98 60.45 16.13"/><rect class="cls-1" x="83.85" y="106.63" width="6.77" height="1.85"/><rect class="cls-1" x="3.08" y="0.99" width="57.38" height="1.85"/><polygon class="cls-1" points="60.45 0.98 90.74 31.27 88.9 31.27 60.45 2.83 60.45 0.98"/><rect class="cls-1" x="18.1" y="16.13" width="27.21" height="1.85"/><polygon class="cls-1" points="45.31 16.13 60.58 31.27 58.73 31.27 45.31 17.98 45.31 16.13"/><polygon class="cls-1" points="67.23 123.62 69.07 123.62 77.32 93.45 77.32 91.61 75.48 91.61 67.23 123.62"/><rect class="cls-1" x="63.41" y="121.77" width="5.66" height="1.85"/><rect class="cls-1" x="65.38" y="106.63" width="7.76" height="1.85"/><path class="cls-1" d="M91.69,239.61a.85.85,0,1,1-.85.85.85.85,0,0,1,.85-.85m0-1a1.85,1.85,0,1,0,1.85,1.85,1.85,1.85,0,0,0-1.85-1.85Z" transform="translate(-22 -164)"/><path class="cls-1" d="M84.3,285.91a.85.85,0,1,1-.84.85.85.85,0,0,1,.84-.85m0-1a1.85,1.85,0,1,0,1.85,1.85,1.84,1.84,0,0,0-1.85-1.85Z" transform="translate(-22 -164)"/><path class="cls-1" d="M86.15,270.64a.85.85,0,1,1-.85.85.85.85,0,0,1,.85-.85m0-1A1.85,1.85,0,1,0,88,271.49a1.85,1.85,0,0,0-1.85-1.85Z" transform="translate(-22 -164)"/><path class="cls-1" d="M89.84,255.62a.85.85,0,1,1-.84.85.85.85,0,0,1,.84-.85m0-1a1.85,1.85,0,1,0,1.85,1.85,1.84,1.84,0,0,0-1.85-1.85Z" transform="translate(-22 -164)"/><path class="cls-1" d="M101.17,285.91a.85.85,0,1,1-.85.85.85.85,0,0,1,.85-.85m0-1a1.85,1.85,0,1,0,1.85,1.85,1.85,1.85,0,0,0-1.85-1.85Z" transform="translate(-22 -164)"/><rect class="cls-1" x="76.83" y="136.92" width="13.91" height="1.85"/><path class="cls-1" d="M97.48,301.06a.84.84,0,0,1,.84.84.85.85,0,1,1-.84-.84m0-1a1.85,1.85,0,1,0,1.84,1.84,1.84,1.84,0,0,0-1.84-1.84Z" transform="translate(-22 -164)"/><path class="cls-1" d="M104.37,270.77a.85.85,0,1,1-.85.84.85.85,0,0,1,.85-.84m0-1a1.85,1.85,0,1,0,1.85,1.84,1.84,1.84,0,0,0-1.85-1.84Z" transform="translate(-22 -164)"/><path class="cls-1" d="M86.27,223.73a.85.85,0,1,1-.84.85.85.85,0,0,1,.84-.85m0-1a1.85,1.85,0,1,0,1.85,1.85,1.84,1.84,0,0,0-1.85-1.85Z" transform="translate(-22 -164)"/><path class="cls-1" d="M84.3,210.56a.85.85,0,1,1-.84.84.85.85,0,0,1,.84-.84m0-1a1.85,1.85,0,1,0,1.85,1.84,1.84,1.84,0,0,0-1.85-1.84Z" transform="translate(-22 -164)"/><path class="cls-1" d="M54,195.29a.85.85,0,1,1-.84.85.85.85,0,0,1,.84-.85m0-1a1.85,1.85,0,1,0,1.85,1.85A1.84,1.84,0,0,0,54,194.29Z" transform="translate(-22 -164)"/><path class="cls-1" d="M39,180.14a.85.85,0,1,1-.85.85.85.85,0,0,1,.85-.85m0-1A1.85,1.85,0,1,0,40.84,181,1.85,1.85,0,0,0,39,179.14Z" transform="translate(-22 -164)"/><path class="cls-1" d="M81.22,180.14a.85.85,0,1,1-.84.85.85.85,0,0,1,.84-.85m0-1A1.85,1.85,0,1,0,83.07,181a1.84,1.84,0,0,0-1.85-1.85Z" transform="translate(-22 -164)"/><path class="cls-1" d="M23.85,165a.85.85,0,1,1-.85.85.85.85,0,0,1,.85-.85m0-1a1.85,1.85,0,1,0,1.84,1.85A1.85,1.85,0,0,0,23.85,164Z" transform="translate(-22 -164)"/><text class="cls-2" transform="translate(121.24 122.01)">ECH</text><text class="cls-3" transform="translate(342.63 123.24) scale(1.04 1)">WORLD</text></svg>