<svg id="Layer_1" data-name="Layer 1" xmlns="http://www.w3.org/2000/svg" viewBox="0 0 1471.5 1234.5"><defs><style>.cls-1{fill:#005ec4;}</style></defs><title>logo</title><path class="cls-1" d="M1255.5,430.5h0c-135.31,0-245,109.69-245,245v981l245-245Z" transform="translate(-274 -422)"/><polygon class="cls-1" points="981.5 253.5 1226.5 253.5 1471.5 8.5 981.5 8.5 981.5 253.5"/><rect class="cls-1" x="268" y="254" width="469" height="15"/><rect class="cls-1" x="576" y="614" width="161" height="15"/><rect class="cls-1" x="518" y="377" width="219" height="15"/><rect class="cls-1" x="534" y="484" width="29" height="15"/><polygon class="cls-1" points="549 499 613 377 626 384 563 499 549 499"/><rect class="cls-1" x="561" y="744" width="175" height="15"/><rect class="cls-1" x="654" y="989" width="83" height="15"/><polygon class="cls-1" points="491 131 611.64 131 616 146 491 146 491 131"/><rect class="cls-1" x="681" y="866" width="55" height="15"/><rect class="cls-1" x="25" y="8" width="466" height="15"/><polygon class="cls-1" points="491 8 737 254 722 254 491 23 491 8"/><rect class="cls-1" x="147" y="131" width="221" height="15"/><polygon class="cls-1" points="368 131 492 254 477 254 368 146 368 131"/><polygon class="cls-1" points="546 1004 561 1004 628 759 628 744 613 744 546 1004"/><rect class="cls-1" x="515" y="989" width="46" height="15"/><rect class="cls-1" x="531" y="866" width="63" height="15"/><path class="cls-1" d="M840,1036a7,7,0,1,1-7,7,7,7,0,0,1,7-7m0-8a15,15,0,1,0,15,15,15,15,0,0,0-15-15Z" transform="translate(-274 -422)"/><path class="cls-1" d="M780,1412a7,7,0,1,1-7,7,7,7,0,0,1,7-7m0-8a15,15,0,1,0,15,15,15,15,0,0,0-15-15Z" transform="translate(-274 -422)"/><path class="cls-1" d="M795,1288a7,7,0,1,1-7,7,7,7,0,0,1,7-7m0-8a15,15,0,1,0,15,15,15,15,0,0,0-15-15Z" transform="translate(-274 -422)"/><path class="cls-1" d="M825,1166a7,7,0,1,1-7,7,7,7,0,0,1,7-7m0-8a15,15,0,1,0,15,15,15,15,0,0,0-15-15Z" transform="translate(-274 -422)"/><path class="cls-1" d="M917,1412a7,7,0,1,1-7,7,7,7,0,0,1,7-7m0-8a15,15,0,1,0,15,15,15,15,0,0,0-15-15Z" transform="translate(-274 -422)"/><rect class="cls-1" x="624" y="1112" width="113" height="15"/><path class="cls-1" d="M887,1535a7,7,0,1,1-7,7,7,7,0,0,1,7-7m0-8a15,15,0,1,0,15,15,15,15,0,0,0-15-15Z" transform="translate(-274 -422)"/><path class="cls-1" d="M943,1289a7,7,0,1,1-7,7,7,7,0,0,1,7-7m0-8a15,15,0,1,0,15,15,15,15,0,0,0-15-15Z" transform="translate(-274 -422)"/><path class="cls-1" d="M796,907a7,7,0,1,1-7,7,7,7,0,0,1,7-7m0-8a15,15,0,1,0,15,15,15,15,0,0,0-15-15Z" transform="translate(-274 -422)"/><path class="cls-1" d="M780,800a7,7,0,1,1-7,7,7,7,0,0,1,7-7m0-8a15,15,0,1,0,15,15,15,15,0,0,0-15-15Z" transform="translate(-274 -422)"/><path class="cls-1" d="M534,676a7,7,0,1,1-7,7,7,7,0,0,1,7-7m0-8a15,15,0,1,0,15,15,15,15,0,0,0-15-15Z" transform="translate(-274 -422)"/><path class="cls-1" d="M412,553a7,7,0,1,1-7,7,7,7,0,0,1,7-7m0-8a15,15,0,1,0,15,15,15,15,0,0,0-15-15Z" transform="translate(-274 -422)"/><path class="cls-1" d="M755,553a7,7,0,1,1-7,7,7,7,0,0,1,7-7m0-8a15,15,0,1,0,15,15,15,15,0,0,0-15-15Z" transform="translate(-274 -422)"/><path class="cls-1" d="M289,430a7,7,0,1,1-7,7,7,7,0,0,1,7-7m0-8a15,15,0,1,0,15,15,15,15,0,0,0-15-15Z" transform="translate(-274 -422)"/></svg>